<svg xmlns="http://www.w3.org/2000/svg" fill="none" viewBox="0 0 161 64">
  <path fill="#CE0E2D" d="M7.553 50.672v11.877H4.619V50.672H.299v-2.456h11.418v2.456H7.554ZM30.537 62.549v-6.488h-5.651v6.488h-2.931V48.216h2.93v5.386h5.651v-5.386h2.934V62.55h-2.933ZM44.306 62.549V48.216H54.63v2.456h-7.392v3.263h6.823v2.459H47.24v3.7h7.723v2.455H44.306ZM73.312 62.549l-.979-2.874h-5.278l-.997 2.874h-2.992l4.968-14.336h3.379l4.889 14.336h-2.99Zm-3.578-10.895-1.762 5.565h3.655l-1.893-5.566ZM90.32 50.672v11.877h-2.934V50.672h-4.32v-2.456h11.416v2.456H90.32ZM112.213 62.549a3.218 3.218 0 0 1-.39-1.338c-.041-.708 0-1.849 0-2.892 0-.964-.747-1.436-1.761-1.436h-3.441v5.666h-2.934V48.213h7.919c1.428 0 2.855.725 3.286 2.279.176.628.486 1.648.138 2.892-.355 1.235-.979 1.689-1.938 2.26.49.331 1.428.688 1.583 1.985.079.592.138 2.48.138 3.204.02.808.234.985.551 1.182v.534h-3.151Zm-1.621-11.877h-3.971v3.756h4.012c.683 0 1.914-.729 1.738-2.144-.002-1.023-.471-1.612-1.779-1.612ZM125.173 62.549V48.216h10.32v2.456h-7.389v3.263h6.823v2.459h-6.823v3.7h7.723v2.455h-10.654ZM153.204 52.58c.041-1.16-.917-2.224-2.928-2.262-1.43-.018-2.485.469-2.582 1.648-.079.987.255 1.182.9 1.436.331.356 3.027.787 3.575.89.783.135 2.465.49 3.365 1.412 1.641 1.733.879 5.132-.9 6.297-1.21.787-2.872.981-4.458 1.002-.726.02-2.444-.236-3.499-1.002-1.272-.923-1.896-2.341-1.996-3.697h2.855c0 .374.117.964.606 1.495.645.669 1.703.863 2.682.825.976-.02 1.896-.316 2.269-.67.624-.589.762-1.709.058-2.416-.938-.985-3.754-.985-5.592-1.616-1.544-.528-2.813-1.648-2.579-3.968.234-2.282 1.876-3.974 5.358-3.974.762 0 3.423.062 4.809 1.831.745.964.941 2.3.821 2.774h-2.764v-.006ZM158.198 61.438a1.4 1.4 0 1 1 2.799 0c0 .784-.621 1.412-1.395 1.412a1.41 1.41 0 0 1-1.404-1.412Zm2.635 0a1.23 1.23 0 1 0-2.459 0c0 .69.548 1.244 1.231 1.244a1.239 1.239 0 0 0 1.228-1.244Zm-.533.787h-.229l-.446-.726h-.354v.726h-.191V60.65h.683c.129 0 .264.01.381.077.117.068.176.21.176.34 0 .312-.217.424-.495.432l.475.726Zm-.736-.879c.223 0 .563.036.563-.283 0-.247-.214-.274-.408-.274h-.445v.557h.29ZM82.963 6.058C90.408-.28 98.213-.153 104.851 3.14c6.172 3.272 8.385 7.982 8.485 14.854l-.003 16.865s-.062 4.758-4.912 4.758c-4.608 0-4.824-4.728-4.824-4.728l-.065-16.662s-.278-7.741-7.975-7.741c-7.734 0-8.35 7.7-8.35 7.7v16.402s0 4.97-4.897 4.97c-4.783 0-4.883-4.97-4.883-4.97l-.003-16.355s-.147-7.747-8.324-7.747c-8.135 0-7.927 7.862-7.927 7.862v16.82s-.569 4.425-4.86 4.425c-4.449 0-4.9-4.466-4.9-4.466l-.03-16.974c0-6.258 1.202-12.466 10.053-15.983 4.021-1.598 8.74-1.566 12.972-.596 2.823 1.032 5.258 2.417 7.632 4.484l.449.395.474-.395ZM35.742 34.756c0-4.879-4.81-4.896-4.81-4.896H13.6c-1.026 0-1.146-.788-.9-1.707 2.12-5.289 6.815-11.211 11.835-13.8 4.153-2.134 8.916-4.354 13.854-4.03 1.035.083 1.035.564 1.035 2.197v22s.249 4.997 5.058 4.997c4.95 0 4.558-4.832 4.558-4.832l-.02-27.625c.064-1.677-.241-3.29-1.234-4.58-.74-.676-1.733-1.386-2.855-1.546-5.903-.492-11.568.045-17 1.637C17.864 5.52 8.243 13.749 3.304 23.539 1.623 26.873.064 31.248 0 35.281c.064 1.934.868 4.192 3.063 4.192l27.948.141s4.73.18 4.73-4.858ZM151.319 22.779c4.892.512 4.282 5.129 4.282 5.129-2.64 8.354-10.422 13.46-19.601 13.46-11.357 0-20.566-9.265-20.566-20.688C115.434 9.26 124.64 0 136 0c9.22 0 17.025 4.525 19.634 12.935 0 0 1.242 5.065-4.168 5.693-4.006 0-4.625-3.287-4.625-3.287-1.55-4.513-5.809-6.17-10.824-6.17-6.321 0-11.444 5.153-11.444 11.512 0 6.361 5.123 11.517 11.444 11.517 4.954 0 9.168-2.21 10.765-6.639 0-.003.982-2.862 4.537-2.782Z"/>
</svg>
