<svg fill="none" viewBox="0 0 28 28" class="astro-BITVMAL6" width="28" height="28" astro-icon="trophy" xmlns="http://www.w3.org/2000/svg"><path fill="#B51E6D" fill-rule="evenodd" d="m6.909 12.543-.074.443.523.087a9.01 9.01 0 0 0 3.633 2.412c-.108 2.888-1.173 4.196-2.065 4.82a3.983 3.983 0 0 1-1.811.686c-.05.005-.086.007-.106.008L6.992 21A1 1 0 0 0 6 22v5a1 1 0 0 0 1 1h14a1 1 0 0 0 1-1v-5a1 1 0 0 0-.992-1h-.018a3.484 3.484 0 0 1-.544-.083 3.983 3.983 0 0 1-1.373-.611c-.892-.625-1.957-1.933-2.065-4.821a9.01 9.01 0 0 0 3.633-2.412l.523-.087-.074-.443.075.443h.005l.008-.002.021-.004.067-.013a7.169 7.169 0 0 0 .95-.284 8.46 8.46 0 0 0 2.202-1.236c1.651-1.285 3.288-3.544 3.546-7.376C28.043 2.903 27.09 2 26 2h-3.171a3.001 3.001 0 0 0-2.83-2H8A3.001 3.001 0 0 0 5.17 2H2C.909 2-.044 2.903.035 4.071c.258 3.832 1.895 6.091 3.546 7.376a8.458 8.458 0 0 0 2.201 1.235 7.171 7.171 0 0 0 .951.285l.067.013.022.004.007.001h.004v.001c.001 0 .002 0 .076-.443ZM4.999 4H2.036c.232 3.208 1.569 4.93 2.774 5.868.299.232.595.42.871.572A8.973 8.973 0 0 1 5 7V4Zm11.873 17c-.944-1.074-1.676-2.67-1.838-5h-2.068c-.163 2.33-.895 3.926-1.84 5h5.746ZM20 23H8v3h12v-3Zm1-16A7 7 0 1 1 7 7V3a1 1 0 0 1 1-1h12a1 1 0 0 1 1 1v4Zm2-3v3c0 1.218-.242 2.38-.681 3.44.277-.152.572-.34.871-.572 1.205-.937 2.542-2.66 2.774-5.868H23Z" clip-rule="evenodd"></path></svg>