<svg xmlns="http://www.w3.org/2000/svg" fill="none" viewBox="0 0 1600 553">
  <g fill="#096DD9" fill-rule="evenodd" clip-rule="evenodd" opacity=".05">
    <path d="M3.4 478.804c-4.06-3.267-4.554-9.033-1.105-12.878l202.939-226.28c3.449-3.845 9.534-4.314 13.593-1.046 4.058 3.267 4.553 9.033 1.104 12.878L16.991 477.757c-3.448 3.846-9.533 4.314-13.592 1.047Z"/>
    <path d="M217.712 235.519c6.481 1.44 10.504 7.584 8.985 13.725l-71.26 288.052c-1.519 6.14-8.005 9.952-14.486 8.512-6.482-1.439-10.505-7.584-8.986-13.725l71.26-288.051c1.519-6.141 8.005-9.952 14.487-8.513Z"/>
    <path d="M140.615 550.682c-7.97-4.578-10.514-14.41-5.683-21.961l328.934-514.08c4.832-7.551 15.21-9.961 23.179-5.384 7.97 4.578 10.515 14.41 5.683 21.96L163.794 545.299c-4.831 7.551-15.209 9.961-23.179 5.384Z"/>
    <path d="M468.363 11.56c9.148-6.312 21.965-4.403 28.628 4.265l373.857 486.361c6.662 8.668 4.647 20.811-4.501 27.124-9.148 6.312-21.965 4.403-28.628-4.265L463.862 38.683c-6.662-8.667-4.647-20.81 4.501-27.123Z"/>
    <path d="M845.305 531.514c-10.222-7.057-12.471-20.63-5.023-30.315l377.698-491.13c7.45-9.686 21.77-11.817 32-4.76 10.22 7.057 12.47 20.63 5.02 30.315L877.302 526.755c-7.448 9.685-21.774 11.816-31.997 4.759Z"/>
    <path d="M1242.24.502c13.09 2.295 21.74 14.212 19.32 26.616L1208.06 301c-2.43 12.404-15 20.599-28.1 18.303-13.09-2.296-21.74-14.212-19.31-26.616l53.5-273.883c2.42-12.404 15-20.599 28.09-18.303Z"/>
    <path d="M1168.97 318.119c-11.05-11.793-9.92-29.838 2.53-40.305L1549.86 7.198c12.45-10.467 31.5-9.392 42.54 2.4 11.05 11.794 9.92 29.84-2.53 40.306L1211.51 320.52c-12.45 10.467-31.49 9.392-42.54-2.401Z"/>
  </g>
</svg>