<svg fill="none" viewBox="0 0 32 32" class="astro-HZVNNT34" width="48" height="48" astro-icon="shopping-cart" xmlns="http://www.w3.org/2000/svg"><path fill="currentColor" fill-rule="evenodd" d="M1 3a1 1 0 0 1 1-1h2.396a3 3 0 0 1 2.928 2.35L8.136 8h19.302a3 3 0 0 1 2.91 3.728l-2 8A3 3 0 0 1 25.439 22H11.604a3 3 0 0 1-2.928-2.35L5.372 4.784A1 1 0 0 0 4.396 4H2a1 1 0 0 1-1-1Zm7.58 7 2.048 9.217a1 1 0 0 0 .976.783h13.834a1 1 0 0 0 .97-.758l2-8a1 1 0 0 0-.97-1.242H8.58ZM10 27a3 3 0 1 1 6 0 3 3 0 0 1-6 0Zm3-1a1 1 0 1 0 0 2 1 1 0 0 0 0-2Zm11-2a3 3 0 1 0 0 6 3 3 0 0 0 0-6Zm-1 3a1 1 0 1 1 2 0 1 1 0 0 1-2 0Z" clip-rule="evenodd"></path></svg>