<svg xmlns="http://www.w3.org/2000/svg" fill="none" viewBox="-10 -10 146 118">
  <g clip-path="url(#a)">
    <path fill="#0074AE" fill-rule="evenodd" d="M68.142 74.984a3.016 3.016 0 0 1 3.023 3.009 3.016 3.016 0 0 1-3.023 3.009 3.015 3.015 0 0 1-3.022-3.01 3.015 3.015 0 0 1 3.022-3.008Zm40.753 11.05c.155-5.046 8.301-5.506 13.024-2.66l-1.744 3.413c-1.627-1.125-3.035-1.65-4.827-1.505-1.699.139-1.882 1.978.872 1.909 4.303-.108 6.624 2.142 6.396 5.034-.369 4.67-7.76 6.58-14.243 2.488l2.382-3.471c1.803 1.03 3.599 1.95 5.408 1.735 1.876-.223 2.822-1.73-.524-2.082-4.558-.482-6.833-1.93-6.744-4.86Zm-35.542 10.92V82.578h5.26v2.017c2.041-3.369 9.977-3.42 9.978 1.843l.001 10.518h-5.245l-.058-7.23c-.023-2.89-1.08-3.163-2.505-3.002-1.181.132-2.24.559-2.24 3.003v7.229h-5.191ZM65.409 82.32h5.465v14.636H65.41V82.319ZM38.763 96.954V82.577h5.26v2.017c1.576-2.617 7.65-3.893 9.395.165 2.48-3.688 9.733-3.52 9.73 1.491l-.006 10.705h-5.576v-7.866c0-2.114-.362-2.316-2.147-2.237-1.46.065-1.792 1.27-1.799 2.638l-.035 7.465H48.34l-.057-7.23c-.024-2.89-.662-3.137-2.09-3.002-1.415.132-2.032.328-2.032 3.003v7.229h-5.398Zm-9.485-15.446c4.286 0 7.761 3.458 7.761 7.723 0 4.266-3.475 7.723-7.76 7.723-4.288 0-7.762-3.457-7.762-7.723 0-4.265 3.474-7.723 7.761-7.723Zm0 4.975a2.755 2.755 0 0 1 2.762 2.748 2.755 2.755 0 0 1-2.762 2.748 2.755 2.755 0 0 1-2.761-2.748 2.755 2.755 0 0 1 2.761-2.748ZM.19 96.954V76.596h6.085c1.93 0 3.582.105 4.947.313 1.365.21 2.48.532 3.335.97 1.813.924 3.197 2.155 4.167 3.683.965 1.529 1.448 3.27 1.448 5.227 0 1.95-.483 3.683-1.443 5.202-.96 1.52-2.35 2.749-4.172 3.684-.883.446-2.01.773-3.37.978-1.359.204-3.187.303-5.468.303H.189Zm6.075-5.377v-9.603h2.484c.788 0 1.463.05 2.02.147.559.099 1.015.251 1.363.457a4.528 4.528 0 0 1 1.703 1.738c.393.72.59 1.542.59 2.465 0 .92-.197 1.738-.59 2.454a4.521 4.521 0 0 1-1.703 1.738c-.36.21-.821.365-1.376.46-.555.097-1.302.144-2.234.144H6.264ZM97.802 81.51c4.286 0 7.76 3.458 7.76 7.723 0 4.266-3.474 7.723-7.76 7.723-4.287 0-7.762-3.457-7.762-7.723 0-4.265 3.475-7.723 7.762-7.723Zm0 4.975c1.524 0 2.76 1.23 2.76 2.748a2.755 2.755 0 0 1-2.76 2.748 2.755 2.755 0 0 1-2.762-2.748 2.755 2.755 0 0 1 2.762-2.748Zm9.378-11.466c1.197 0 2.226.712 2.683 1.733.352.787.38 1.788.167 2.625-.328 1.288-1.419 2.546-3.72 3.742l-.634-.855c.449-.373.912-.759 1.099-1.04.334-.504-.102-.38-.47-.494a2.924 2.924 0 0 1-2.06-2.789 2.928 2.928 0 0 1 2.935-2.922Z" clip-rule="evenodd"/>
    <path fill="#0074AE" d="M124.461 82.181c.213 0 .423.054.627.163.203.11.362.266.476.47.114.204.172.416.172.637 0 .22-.057.43-.17.631-.111.202-.269.36-.471.47a1.286 1.286 0 0 1-1.269 0 1.178 1.178 0 0 1-.473-.47 1.264 1.264 0 0 1 .002-1.267c.114-.205.273-.36.478-.47.203-.11.413-.163.628-.163Zm0 .21c-.18 0-.355.046-.524.137a.977.977 0 0 0-.398.392 1.048 1.048 0 0 0-.002 1.056.989.989 0 0 0 .395.394c.168.093.345.14.529.14.182 0 .36-.047.529-.14a.999.999 0 0 0 .394-.393 1.072 1.072 0 0 0-.003-1.056.99.99 0 0 0-.398-.393 1.097 1.097 0 0 0-.522-.137Zm-.561 1.762v-1.366h.472c.162 0 .278.012.35.037.073.026.129.07.173.132a.361.361 0 0 1-.044.461.423.423 0 0 1-.284.125c.048.02.088.044.116.072.055.054.123.145.203.272l.167.267h-.27l-.121-.216c-.096-.168-.173-.275-.233-.317-.039-.032-.099-.047-.177-.047h-.13v.58h-.222Zm.222-.77h.269c.128 0 .215-.018.263-.056a.188.188 0 0 0 .07-.152.19.19 0 0 0-.034-.109.207.207 0 0 0-.094-.07.693.693 0 0 0-.222-.024h-.252v.412Z"/>
    <path fill="#E71E29" fill-rule="evenodd" d="M52.334 19.69 71.404.78a2.06 2.06 0 0 1 2.895.005L92.29 18.75c.795.794.793 2.09-.006 2.882l-19.07 18.91-20.881-20.852Zm17.087-3.355a5.135 5.135 0 0 1 7.239.013 5.075 5.075 0 0 1-.013 7.203 5.137 5.137 0 0 1-7.238-.013 5.077 5.077 0 0 1 .012-7.203Z" clip-rule="evenodd"/>
    <path fill="#0074AE" fill-rule="evenodd" d="M55.02 38.026a5.136 5.136 0 0 1 7.238.014 5.074 5.074 0 0 1-.013 7.202 5.135 5.135 0 0 1-7.238-.012 5.076 5.076 0 0 1 .013-7.204Zm-14.984.046a5.137 5.137 0 0 1 7.239.014 5.075 5.075 0 0 1-.013 7.203 5.137 5.137 0 0 1-7.238-.013 5.077 5.077 0 0 1 .012-7.204Zm-8.145 1.895 19.07-18.91L71.84 41.91 52.773 60.82a2.06 2.06 0 0 1-2.895-.004L31.885 42.848a2.036 2.036 0 0 1 .006-2.88Z" clip-rule="evenodd"/>
    <path fill="#0074AE" d="M59.4 61.504v-2.545h-.974v-.445h2.454v.445h-.98v2.545h-.5Zm1.816 0v-2.99h.738l.758 2.388.733-2.388h.724v2.99h-.458v-2.51l-.774 2.51h-.453l-.807-2.545v2.545h-.461Z"/>
  </g>
  <defs>
    <clipPath id="a">
      <path fill="#fff" d="M0 0h125.923v97.143H0z"/>
    </clipPath>
  </defs>
</svg>
