<svg viewBox="0 0 32 32" class="astro-HZVNNT34" width="48" height="48" astro-icon="machine-learning" xmlns="http://www.w3.org/2000/svg"><path fill="currentColor" d="M12 18a2 2 0 1 0 0-4 2 2 0 0 0 0 4Zm10-2a2 2 0 1 1-4 0 2 2 0 0 1 4 0Zm-10.286 5.199a1 1 0 1 0-1.428 1.4 7.979 7.979 0 0 0 5.714 2.4 7.98 7.98 0 0 0 5.714-2.4 1 1 0 1 0-1.428-1.4 5.98 5.98 0 0 1-4.286 1.8 5.98 5.98 0 0 1-4.286-1.8Z"></path><path fill="currentColor" fill-rule="evenodd" d="M21 2a1 1 0 1 0-2 0v3h-6V2a1 1 0 1 0-2 0v3H6a3 3 0 0 0-3 3v6H2a1 1 0 1 0 0 2h1v4H2a1 1 0 1 0 0 2h1v6a3 3 0 0 0 3 3h20a3 3 0 0 0 3-3v-6h1a1 1 0 1 0 0-2h-1v-4h1a1 1 0 1 0 0-2h-1V8a3 3 0 0 0-3-3h-5V2ZM5 8a1 1 0 0 1 1-1h20a1 1 0 0 1 1 1v20a1 1 0 0 1-1 1H6a1 1 0 0 1-1-1V8Z" clip-rule="evenodd"></path></svg>