<svg width="34" height="34" viewBox="0 0 34 34" fill="none" xmlns="http://www.w3.org/2000/svg" class="astro-RHRNHLHI">
            <path fill-rule="evenodd" clip-rule="evenodd" d="M17 34C26.3888 34 34 26.3888 34 17C34 7.61116 26.3888 0 17 0C7.61116 0 0 7.61116 0 17C0 26.3888 7.61116 34 17 34ZM14.9021 17.7894V26H18.3729V17.7894H21.2677L21.701 14.5895H18.3729V12.5465C18.3729 11.6201 18.6431 10.9888 20.0386 10.9888L21.8182 10.988V8.12607C21.5103 8.08712 20.454 8 19.2249 8C16.6589 8 14.9021 9.49118 14.9021 12.2297V14.5895H12V17.7894H14.9021Z" fill="#420828" class="astro-RHRNHLHI"></path>
            </svg>