<svg xmlns="http://www.w3.org/2000/svg" fill="none" viewBox="0 0 250 57">
  <path fill="#1BDBDB" d="M52.461 6.338c-5.807-3.65-13.451-2.78-20.27 1.53-6.796-4.31-14.446-5.18-20.245-1.53-9.175 5.769-10.29 20.626-2.49 33.185 5.75 9.26 14.743 14.685 22.747 14.585 8.005.1 16.997-5.325 22.747-14.585 7.792-12.56 6.686-27.416-2.489-33.185ZM13.674 36.871a30.183 30.183 0 0 1-3.6-8.292 23.85 23.85 0 0 1-.78-7.818c.347-4.641 2.225-8.256 5.285-10.179s7.105-2.04 11.413-.32a21.4 21.4 0 0 1 1.92.892 35.421 35.421 0 0 0-6.186 7.482c-4.736 7.625-6.18 16.11-4.528 22.875a30.768 30.768 0 0 1-3.524-4.64Zm40.66-8.294a30.251 30.251 0 0 1-3.6 8.292 31.047 31.047 0 0 1-3.523 4.649c1.478-6.065.474-13.494-3.15-20.461a.918.918 0 0 0-.576-.472.908.908 0 0 0-.733.114L31.455 27.8a.926.926 0 0 0-.422.943c.02.12.064.235.128.339l1.658 2.666a.927.927 0 0 0 .575.414.914.914 0 0 0 .697-.118l7.322-4.604c.237.715.474 1.43.652 2.145.69 2.54.955 5.18.784 7.808-.348 4.64-2.226 8.254-5.286 10.18a10.284 10.284 0 0 1-5.236 1.524h-.235a10.272 10.272 0 0 1-5.236-1.525c-3.062-1.925-4.94-5.54-5.288-10.179a23.91 23.91 0 0 1 .781-7.818 30.967 30.967 0 0 1 9.43-15.185 23.59 23.59 0 0 1 6.632-4.132c4.296-1.72 8.348-1.606 11.41.32 3.062 1.925 4.938 5.537 5.286 10.178a23.91 23.91 0 0 1-.772 7.82Zm58.311-5.545c-5.939 0-10.74 4.666-10.74 10.601 0 5.895 4.801 10.484 10.74 10.484 5.98 0 10.78-4.582 10.78-10.484 0-5.933-4.793-10.599-10.78-10.599v-.002Zm0 15.543c-2.737 0-4.821-2.228-4.821-4.982 0-2.755 2.084-5.016 4.821-5.016 2.778 0 4.862 2.268 4.862 5.023 0 2.754-2.084 4.984-4.862 4.984v-.01Zm24.173-23.685h-10.93a.865.865 0 0 0-.637.259.89.89 0 0 0-.255.642v26.808a.89.89 0 0 0 .892.954h10.93c8.746 0 14.823-5.852 14.823-14.366 0-8.566-6.077-14.297-14.823-14.297Zm.258 23.001h-5.98V20.537h5.98c4.841 0 8.177 3.644 8.177 8.638 0 4.91-3.336 8.716-8.177 8.716Zm36.319-14.282h-4.109a.932.932 0 0 0-.852.9v1.227c-.936-1.555-3.051-2.701-5.684-2.701-5.125 0-9.925 4.05-9.925 10.52 0 6.433 4.758 10.557 9.885 10.557 2.643 0 4.8-1.143 5.736-2.7v1.269a.865.865 0 0 0 .852.86h4.109a.83.83 0 0 0 .61-.246.84.84 0 0 0 .245-.614V24.509a.887.887 0 0 0-.244-.634.872.872 0 0 0-.623-.266Zm-9.558 15.011c-2.721 0-4.765-2.104-4.765-5.023 0-2.919 2.044-5.02 4.765-5.02 2.721 0 4.765 2.099 4.765 5.018 0 2.919-2.041 5.023-4.765 5.023v.002Zm32.622-23.73h-4.108a.861.861 0 0 0-.821.524.865.865 0 0 0-.072.336v9.905c-.948-1.474-3.093-2.62-5.776-2.62-5.087 0-9.805 4.05-9.805 10.52 0 6.433 4.758 10.557 9.885 10.557 2.643 0 4.637-1.143 5.736-2.7v1.269a.87.87 0 0 0 .25.606c.16.161.376.252.603.254h4.108a.827.827 0 0 0 .611-.246.84.84 0 0 0 .244-.614V15.755a.846.846 0 0 0-.242-.618.828.828 0 0 0-.613-.247Zm-9.558 23.78c-2.709 0-4.736-2.125-4.736-5.075s2.034-5.075 4.736-5.075 4.737 2.125 4.737 5.075-2.025 5.075-4.737 5.075Zm32.618-23.78h-4.102a.861.861 0 0 0-.626.242.867.867 0 0 0-.269.618v9.905c-.935-1.474-3.093-2.62-5.776-2.62-5.087 0-9.805 4.05-9.805 10.52 0 6.433 4.76 10.557 9.885 10.557 2.646 0 4.637-1.143 5.736-2.7v1.269a.867.867 0 0 0 .855.86h4.102a.825.825 0 0 0 .794-.528.822.822 0 0 0 .058-.332V15.755a.846.846 0 0 0-.24-.618.826.826 0 0 0-.612-.247Zm-9.558 23.78c-2.712 0-4.737-2.125-4.737-5.075s2.035-5.075 4.737-5.075 4.736 2.125 4.736 5.075-2.02 5.075-4.729 5.075h-.007Zm32.056-13.667-6.131 21.156c-1.184 3.765-3.825 6.017-7.934 6.017-1.868 0-3.569-.384-4.902-1.151-.777-.446-1.421-.853-1.421-1.506 0-.405.13-.615.367-.994l1.217-1.834c.344-.513.597-.68.967-.68.292.008.576.107.81.284.764.498 1.475.927 2.557.927 1.265 0 2.231-.407 2.752-1.923l.526-1.756h-2.482a1.086 1.086 0 0 1-1.099-.86l-5.487-17.68c-.204-.696-.017-1.392.999-1.392h4.322c.528 0 .898.181 1.13.941l4.052 14.237 3.789-14.237c.121-.49.448-.94 1.099-.94h4.099c.808-.003 1.052.569.77 1.39Zm-141.66 6.293v11.301a.93.93 0 0 1-.571.867.91.91 0 0 1-.358.067h-3.391a.906.906 0 0 1-.862-.574.923.923 0 0 1-.066-.36V39.63c-2.153 2.736-5.897 4.459-10.132 4.459-7.952 0-14.167-6.02-14.167-14.588 0-8.904 6.71-15.042 15.186-15.042 6.256 0 11.258 2.707 13.48 8.151.062.144.096.299.101.455 0 .258-.168.453-.71.641l-3.96 1.535a1.01 1.01 0 0 1-.748.012 1.15 1.15 0 0 1-.474-.546c-1.42-2.719-3.95-4.565-7.843-4.565-5.05 0-8.666 3.967-8.666 9.111 0 4.988 3.079 9.088 8.81 9.088 3.015 0 5.419-1.43 6.539-3h-3.576a.91.91 0 0 1-.862-.574.926.926 0 0 1-.067-.36v-3.07a.927.927 0 0 1 .268-.666.913.913 0 0 1 .66-.269h10.48a.878.878 0 0 1 .859.541c.047.112.07.231.07.353Zm141.771-11.871v-.274c0-.02.007-.038.019-.053a.077.077 0 0 1 .05-.019h1.731a.068.068 0 0 1 .05.02.078.078 0 0 1 .019.052v.274a.077.077 0 0 1-.019.05.07.07 0 0 1-.05.019h-.632v1.718a.077.077 0 0 1-.021.05.075.075 0 0 1-.05.021h-.327a.064.064 0 0 1-.026-.006.065.065 0 0 1-.021-.015.071.071 0 0 1-.022-.05v-1.718h-.632a.065.065 0 0 1-.05-.019.057.057 0 0 1-.015-.023.083.083 0 0 1-.004-.027Zm3.027-.284.474 1.103.473-1.103a.105.105 0 0 1 .038-.048.128.128 0 0 1 .064-.014h.55a.065.065 0 0 1 .049.018.086.086 0 0 1 .015.022.06.06 0 0 1 .004.027v2.068a.06.06 0 0 1-.017.05.067.067 0 0 1-.049.02h-.308a.071.071 0 0 1-.05-.02.086.086 0 0 1-.015-.023.083.083 0 0 1-.004-.027v-1.56l-.509 1.134a.116.116 0 0 1-.038.054.113.113 0 0 1-.064.015h-.251a.113.113 0 0 1-.061-.015.105.105 0 0 1-.038-.054l-.507-1.135v1.561a.066.066 0 0 1-.018.05.065.065 0 0 1-.048.02h-.315a.066.066 0 0 1-.047-.022.063.063 0 0 1-.013-.022.058.058 0 0 1-.004-.026v-2.068a.08.08 0 0 1 .004-.027.086.086 0 0 1 .015-.022.066.066 0 0 1 .05-.018h.532c.022 0 .043.004.062.014.013.013.022.03.026.048Z"/>
</svg>
