<svg xmlns="http://www.w3.org/2000/svg" fill="none" viewBox="0 0 93 16">
  <g fill="#000" clip-path="url(#a)">
    <path d="M0 .86C0 .633.201.437.418.437h2.093c.248 0 .434.196.434.423v5.896h7.314V.86c0-.227.186-.423.434-.423h2.061c.217 0 .434.196.434.423v14.718a.438.438 0 0 1-.434.422h-2.06a.427.427 0 0 1-.435-.422V9.44H2.945v6.138A.427.427 0 0 1 2.51 16H.418A.435.435 0 0 1 0 15.578V.86ZM25.323 10.692l-2.247-4.886h-.062l-2.2 4.886h4.509Zm-9.702 4.735 6.99-14.96a.401.401 0 0 1 .387-.24h.233c.232 0 .31.105.387.24l6.912 14.96c.14.287-.047.573-.388.573h-1.968c-.34 0-.496-.136-.65-.437l-1.1-2.413h-6.711l-1.1 2.398a.671.671 0 0 1-.651.437h-1.953c-.341.015-.511-.271-.388-.558ZM39.565 7.525c1.193 0 2.216-1.025 2.216-2.262s-1.038-2.156-2.216-2.156h-3.658v4.418h3.658ZM32.963.86c0-.227.186-.423.434-.423h6.416c2.696 0 4.897 2.127 4.897 4.78 0 2.052-1.38 3.71-3.332 4.495l3.084 5.64c.155.286 0 .648-.388.648H41.72c-.202 0-.31-.105-.357-.196l-2.99-5.896h-2.496v5.67a.438.438 0 0 1-.434.422h-2.06a.427.427 0 0 1-.435-.422V.86h.016ZM54.443 7.525c1.193 0 2.216-1.025 2.216-2.262s-1.038-2.156-2.216-2.156h-3.658v4.418h3.658ZM47.84.86c0-.227.17-.423.418-.423h6.416c2.697 0 4.897 2.127 4.897 4.78 0 2.052-1.363 3.71-3.316 4.495l3.068 5.64c.155.286 0 .648-.387.648h-2.356c-.201 0-.31-.105-.356-.196l-2.991-5.896h-2.495v5.67a.438.438 0 0 1-.434.422h-2.03a.414.414 0 0 1-.419-.422V.86h-.015ZM66.266 8.505l-5.114-7.42a.413.413 0 0 1 .357-.648h2.278c.186 0 .294.106.356.196l3.596 5.113L71.334.633a.418.418 0 0 1 .357-.196H74c.356 0 .542.362.356.649L69.165 8.49v7.088a.438.438 0 0 1-.434.422h-2.062a.427.427 0 0 1-.433-.422V8.505h.03ZM82.772 13.602l.806-1.372a.507.507 0 0 1 .759-.15c.108.06 1.922 1.371 3.394 1.371 1.162 0 2.046-.754 2.046-1.719 0-1.13-.977-1.9-2.852-2.669-2.108-.844-4.215-2.171-4.215-4.795C82.71 2.292 84.182 0 87.762 0c2.294 0 4.045 1.161 4.494 1.493.233.136.295.513.14.739l-.853 1.267c-.186.256-.527.437-.79.256-.186-.106-1.89-1.222-3.115-1.222-1.286 0-1.984.845-1.984 1.554 0 1.04.837 1.749 2.65 2.488C90.474 7.45 93 8.73 93 11.597 93 13.889 91 16 87.84 16c-2.821 0-4.495-1.312-4.929-1.734-.232-.196-.34-.317-.14-.664ZM78.37.437c-1.193 0-2.123.92-2.123 2.097 0 1.1.837 1.975 1.89 1.975.156 0 .404-.015.636-.075v.09c0 1.222-.96 1.614-1.085 1.629-.14 0-.248.03-.34.06a.392.392 0 0 0-.233.362c0 .241.217.437.48.437 1.72 0 3.162-1.734 3.162-3.785.015-1.824-1.194-2.79-2.387-2.79Z"/>
  </g>
  <defs>
    <clipPath id="a">
      <path fill="#fff" d="M0 0h93v16H0z"/>
    </clipPath>
  </defs>
</svg>
