<svg width="34" height="34" viewBox="0 0 34 34" fill="none" xmlns="http://www.w3.org/2000/svg" class="astro-RHRNHLHI">
            <path fill-rule="evenodd" clip-rule="evenodd" d="M17 34C26.3888 34 34 26.3888 34 17C34 7.61116 26.3888 0 17 0C7.61116 0 0 7.61116 0 17C0 26.3888 7.61116 34 17 34ZM13.2892 8.054C14.2494 8.01013 14.5559 8 17 8C19.4441 8 19.7506 8.01013 20.7108 8.054C22.1739 8.12094 23.4586 8.47925 24.4897 9.51031C25.5207 10.5419 25.8791 11.8267 25.946 13.2892C25.9899 14.2494 26 14.5559 26 17C26 19.4441 25.9899 19.7506 25.946 20.7108C25.8791 22.1739 25.5207 23.4586 24.4897 24.4897C23.4581 25.5207 22.1733 25.8791 20.7108 25.946C19.7506 25.9899 19.4441 26 17 26C14.5559 26 14.2494 25.9899 13.2892 25.946C11.8261 25.8791 10.5414 25.5207 9.51031 24.4897C8.47925 23.4581 8.12094 22.1733 8.054 20.7108C8.01013 19.7506 8 19.4441 8 17C8 14.5559 8.01013 14.2494 8.054 13.2892C8.12094 11.8261 8.47925 10.5414 9.51031 9.51031C10.5419 8.47925 11.8267 8.12094 13.2892 8.054ZM12.3792 17.0003C12.3792 14.4483 14.448 12.3788 17.0007 12.3788C19.5533 12.3788 21.6222 14.4483 21.6222 17.0003C21.6222 19.5524 19.5527 21.6218 17.0007 21.6218C14.4486 21.6218 12.3792 19.5524 12.3792 17.0003ZM21.8027 13.2758C22.3992 13.2758 22.8827 12.7922 22.8827 12.1958C22.8827 11.5993 22.3992 11.1158 21.8027 11.1158C21.2062 11.1158 20.7227 11.5993 20.7227 12.1958C20.7227 12.7922 21.2062 13.2758 21.8027 13.2758ZM14.0008 17.0003C14.0008 18.6569 15.3435 20.0001 17.0007 20.0001C18.6578 20.0001 20.0005 18.6575 20.0005 17.0003C20.0005 15.3438 18.6578 14.0005 17.0007 14.0005C15.3441 14.0005 14.0008 15.3432 14.0008 17.0003Z" fill="#420828" class="astro-RHRNHLHI"></path>
            </svg>