<svg xmlns="http://www.w3.org/2000/svg" fill="none" viewBox="0 0 1600 1073">
  <g fill="#B51E6D" fill-rule="evenodd" clip-rule="evenodd" opacity=".04">
    <path d="M-54.309 789.607c-4.427-3.762-4.967-10.401-1.204-14.828l221.388-260.546c3.762-4.428 10.401-4.967 14.828-1.205 4.428 3.762 4.967 10.401 1.205 14.828L-39.48 788.402c-3.762 4.427-10.401 4.967-14.829 1.205Z"/>
    <path d="M179.488 509.479c7.071 1.658 11.46 8.733 9.802 15.804l-77.738 331.671c-1.657 7.071-8.733 11.46-15.803 9.802-7.071-1.657-11.46-8.732-9.802-15.803l77.738-331.672c1.657-7.07 8.733-11.459 15.803-9.802Z"/>
    <path d="M95.382 872.368c-8.694-5.271-11.47-16.592-6.199-25.286L448.02 255.154c5.271-8.695 16.592-11.47 25.287-6.199 8.694 5.27 11.47 16.591 6.199 25.286L120.669 866.169c-5.271 8.694-16.592 11.47-25.287 6.199Z"/>
    <path d="M452.929 251.607c9.98-7.269 23.962-5.07 31.23 4.91l407.845 560.012c7.268 9.98 5.069 23.963-4.91 31.231-9.98 7.268-23.963 5.069-31.231-4.91L448.019 282.837c-7.268-9.98-5.07-23.962 4.91-31.23Z"/>
    <path d="M864.138 850.299c-11.152-8.126-13.606-23.754-5.48-34.906L1270.69 249.89c8.13-11.153 23.75-13.606 34.91-5.481 11.15 8.126 13.6 23.754 5.48 34.906L899.044 844.818c-8.126 11.153-23.753 13.606-34.906 5.481Z"/>
    <path d="M1297.15 238.873c14.29 2.644 23.72 16.365 21.08 30.647l-58.37 315.358c-2.64 14.282-16.36 23.718-30.64 21.074-14.28-2.643-23.72-16.364-21.08-30.646l58.37-315.358c2.64-14.283 16.36-23.718 30.64-21.075Z"/>
    <path d="M1217.23 604.589c-12.06-13.579-10.82-34.357 2.76-46.409l412.76-311.596c13.58-12.052 34.35-10.814 46.41 2.765 12.05 13.579 10.81 34.357-2.77 46.409l-412.75 311.595c-13.58 12.052-34.36 10.815-46.41-2.764Z"/>
  </g>
</svg>