<svg width="34" height="34" viewBox="0 0 34 34" fill="none" xmlns="http://www.w3.org/2000/svg" class="astro-RHRNHLHI">
            <path fill-rule="evenodd" clip-rule="evenodd" d="M17 34C26.3888 34 34 26.3888 34 17C34 7.61116 26.3888 0 17 0C7.61116 0 0 7.61116 0 17C0 26.3888 7.61116 34 17 34ZM10.2509 8C9.00973 8 8 9.00912 8 10.2495C8 11.4904 9.00973 12.4999 10.2509 12.4999C11.491 12.4999 12.4999 11.4904 12.4999 10.2495C12.5 9.00912 11.491 8 10.2509 8ZM12.1884 13.4002H8.31149C8.22888 13.4002 8.14965 13.4318 8.09124 13.4881C8.03282 13.5444 8.00001 13.6207 8.00001 13.7003V25.6999C8.00001 25.7795 8.03282 25.8558 8.09124 25.9121C8.14965 25.9684 8.22888 26 8.31149 26H12.1884C12.2711 26 12.3503 25.9684 12.4087 25.9121C12.4671 25.8558 12.4999 25.7795 12.4999 25.6999V13.7003C12.4999 13.6207 12.4671 13.5444 12.4087 13.4881C12.3503 13.4318 12.2711 13.4002 12.1884 13.4002ZM21.4355 13.4001C20.0007 13.4001 18.9401 14.0301 18.2968 14.7459V13.9846C18.2968 13.9068 18.2666 13.8323 18.2128 13.7773C18.1589 13.7223 18.0859 13.6914 18.0098 13.6914H14.5887C14.5126 13.6914 14.4396 13.7223 14.3858 13.7773C14.332 13.8323 14.3017 13.9068 14.3017 13.9846V25.7067C14.3017 25.7844 14.332 25.859 14.3858 25.914C14.4396 25.9689 14.5126 25.9998 14.5887 25.9998H18.1532C18.2293 25.9998 18.3023 25.9689 18.3561 25.914C18.41 25.859 18.4402 25.7844 18.4402 25.7067V19.9069C18.4402 17.9526 18.9599 17.1912 20.2937 17.1912C21.7463 17.1912 21.8617 18.4118 21.8617 20.0075V25.7067C21.8617 25.7845 21.892 25.859 21.9458 25.914C21.9996 25.969 22.0726 25.9999 22.1487 25.9999H25.7145C25.7907 25.9999 25.8637 25.969 25.9175 25.914C25.9713 25.859 26.0015 25.7845 26.0015 25.7067V19.277C26.0015 16.3709 25.459 13.4001 21.4355 13.4001Z" fill="#420828" class="astro-RHRNHLHI"></path>
            </svg>