<svg width="201" height="70" viewBox="0 0 201 70" fill="none" xmlns="http://www.w3.org/2000/svg">
<path d="M85.2457 31.3636L80.5882 15.9382V31.3636H76.8707V12.4343H83.7929L87.1259 23.7577L90.6297 12.4343H97.5519V31.3636H93.108V15.9382L88.365 31.3636H85.2457Z" fill="#8D181B"/>
<path d="M110.157 12.4343L116.097 31.3636H111.311L110.157 27.4752H104.047L102.85 31.3636H98.962L105.03 12.4343H110.157ZM105.115 23.9713H109.132L107.123 17.3482L105.115 23.9713Z" fill="#8D181B"/>
<path d="M122.121 23.8859V31.4063H117.678V12.4343H126.01C127.548 12.4343 128.787 12.6052 129.685 12.9471C130.625 13.2889 131.394 13.9726 131.992 14.9126C132.59 15.8527 132.889 16.9209 132.889 18.0746C132.889 20.3393 131.778 21.963 129.599 22.9458L133.103 31.3209H128.189L125.284 23.8004H122.121V23.8859ZM122.121 15.81V20.6384H124.856C125.754 20.6384 126.394 20.5957 126.779 20.4675C127.164 20.3393 127.548 20.0829 127.847 19.6556C128.146 19.2283 128.317 18.7156 128.317 18.1601C128.317 17.6473 128.146 17.1773 127.847 16.75C127.548 16.3227 127.206 16.0664 126.822 15.9809C126.437 15.8954 125.754 15.8527 124.728 15.8527H122.121V15.81Z" fill="#8D181B"/>
<path d="M150.708 19.4853L146.05 19.7844C145.965 17.0924 144.939 15.7678 142.931 15.7678C140.623 15.7678 139.47 17.8188 139.47 21.9208C139.47 24.3137 139.769 25.8947 140.41 26.7493C141.051 27.6039 141.905 28.0312 143.059 28.0312C144.896 28.0312 146.007 26.8348 146.435 24.4419L150.75 24.6983C150.494 26.9629 149.639 28.6721 148.229 29.8686C146.819 31.065 145.11 31.6205 143.059 31.6205C140.538 31.6205 138.53 30.7659 136.949 29.014C135.368 27.3048 134.599 24.9119 134.599 21.8354C134.599 18.9725 135.368 16.6224 136.863 14.8277C138.359 12.9903 140.452 12.093 143.059 12.093C147.546 12.1357 150.109 14.6141 150.708 19.4853Z" fill="#8D181B"/>
<path d="M167.842 12.4343V24.2277C167.842 26.1506 167.629 27.5606 167.201 28.458C166.774 29.398 165.962 30.1671 164.808 30.7654C163.655 31.3636 162.159 31.6627 160.322 31.6627C158.484 31.6627 157.032 31.4063 155.963 30.8508C154.895 30.2953 154.083 29.5689 153.528 28.5434C152.972 27.5606 152.716 26.1078 152.716 24.185V12.4343H157.544V24.2277C157.544 25.2532 157.63 25.9796 157.801 26.4924C157.972 26.9624 158.314 27.347 158.826 27.6461C159.339 27.9452 159.98 28.0734 160.706 28.0734C161.518 28.0734 162.202 27.9452 162.757 27.6461C163.27 27.3897 163.612 27.0051 163.783 26.5351C163.954 26.0651 164.039 25.296 164.039 24.2277V12.4343H167.842Z" fill="#8D181B"/>
<path d="M184.165 16.6214L180.405 17.9033C179.892 16.4077 178.824 15.6386 177.2 15.6386C175.449 15.6386 174.594 16.1941 174.594 17.3478C174.594 17.8178 174.765 18.2024 175.107 18.5015C175.449 18.8006 176.175 19.0997 177.329 19.3134C179.251 19.6979 180.662 20.0825 181.559 20.5098C182.456 20.8944 183.225 21.5353 183.824 22.4326C184.422 23.3299 184.764 24.3127 184.764 25.381C184.764 27.0902 184.123 28.5857 182.798 29.8249C181.473 31.064 179.551 31.705 176.944 31.705C175.021 31.705 173.355 31.2777 171.987 30.3803C170.62 29.483 169.723 28.2011 169.295 26.4492L173.398 25.5092C173.868 27.2611 175.149 28.1584 177.243 28.1584C178.269 28.1584 178.995 27.9447 179.508 27.5602C180.021 27.1756 180.234 26.7056 180.234 26.1501C180.234 25.5946 180.021 25.1673 179.551 24.8682C179.081 24.5691 178.226 24.27 176.944 24.0136C174.551 23.5009 172.799 22.8172 171.774 21.9626C170.748 21.108 170.236 19.8261 170.236 18.1597C170.236 16.4932 170.834 15.0404 172.073 13.8867C173.312 12.733 174.936 12.1348 177.072 12.1348C180.704 12.1348 183.097 13.6303 184.165 16.6214Z" fill="#8D181B"/>
<path d="M90.672 38.585V42.3452H85.9717V57.5143H81.4851V42.3452H76.7849V38.585H90.672Z" fill="#8D181B"/>
<path d="M106.952 38.585V57.5143H102.594V49.6948H96.6972V57.5143H92.3388V38.585H96.6972V45.9773H102.594V38.585H106.952Z" fill="#8D181B"/>
<path d="M122.463 42.2167H113.447V46.1052H120.54V49.6518H113.447V53.7966H122.463V57.5568H108.961V38.6274H122.463V42.2167Z" fill="#8D181B"/>
<path d="M134.812 38.585L140.751 57.5143H135.965L134.812 53.6259H128.701L127.505 57.5143H123.617L129.684 38.585H134.812ZM129.77 50.1221H133.786L131.778 43.499L129.77 50.1221Z" fill="#8D181B"/>
<path d="M152.203 38.585V42.3452H147.502V57.5143H143.016V42.3452H138.316V38.585H152.203Z" fill="#8D181B"/>
<path d="M158.185 50.0364V57.5568H153.741V38.6274H162.073C163.612 38.6274 164.851 38.7984 165.748 39.1402C166.688 39.482 167.457 40.1657 168.055 41.1058C168.654 42.0458 168.953 43.1141 168.953 44.2678C168.953 46.5325 167.842 48.1562 165.663 49.139L169.166 57.514H164.253L161.347 49.9936H158.185V50.0364ZM158.185 41.9604V46.7889H160.92C161.817 46.7889 162.458 46.7462 162.842 46.618C163.227 46.4898 163.612 46.2334 163.911 45.8061C164.21 45.3788 164.381 44.8661 164.381 44.3106C164.381 43.7978 164.21 43.3278 163.911 42.9005C163.612 42.4731 163.27 42.2167 162.885 42.1313C162.501 42.0458 161.817 42.0031 160.791 42.0031H158.185V41.9604Z" fill="#8D181B"/>
<path d="M184.421 42.2167H175.405V46.1052H182.499V49.6518H175.405V53.7966H184.421V57.5568H170.919V38.6274H184.421V42.2167Z" fill="#8D181B"/>
<path d="M200.402 42.7726L196.642 44.0545C196.129 42.5589 195.061 41.7897 193.437 41.7897C191.685 41.7897 190.83 42.3452 190.83 43.499C190.83 43.969 191.001 44.3536 191.343 44.6527C191.685 44.9518 192.411 45.2509 193.565 45.4646C195.488 45.8491 196.898 46.2337 197.795 46.661C198.693 47.0456 199.462 47.6865 200.06 48.5838C200.658 49.4812 201 50.4639 201 51.5322C201 53.2414 200.359 54.7369 199.034 55.9761C197.71 57.2152 195.787 57.8562 193.18 57.8562C191.258 57.8562 189.591 57.4289 188.224 56.5316C186.856 55.6342 185.959 54.3523 185.532 52.6004L189.634 51.6604C190.104 53.4123 191.386 54.3096 193.48 54.3096C194.505 54.3096 195.231 54.096 195.744 53.7114C196.257 53.3268 196.471 52.8568 196.471 52.3013C196.471 51.7458 196.257 51.3185 195.787 51.0194C195.317 50.7203 194.462 50.4212 193.18 50.1648C190.788 49.6521 189.036 48.9684 188.01 48.1138C186.985 47.2592 186.472 45.9773 186.472 44.3109C186.472 42.6443 187.07 41.1915 188.309 40.0378C189.548 38.8841 191.172 38.2859 193.309 38.2859C196.983 38.2859 199.376 39.7814 200.402 42.7726Z" fill="#8D181B"/>
<path d="M69.0085 69.0513H0V0H69.0512V69.0513H69.0085ZM1.88011 67.1712H67.1711V1.88011H1.88011V67.1712Z" fill="#8D181B"/>
<path d="M8.0756 10.9387H57.5565C59.052 10.9387 59.4366 12.8188 59.4366 14.1434C59.4366 16.0236 59.4366 53.1985 59.4366 53.1985C59.4366 54.3522 59.4366 54.9077 59.9921 55.4632C60.5475 56.0187 61.8722 56.4032 61.8722 57.9415H48.7969C46.5322 57.9415 46.5322 57.7706 46.5322 56.2323C46.5322 54.7368 46.5322 17.3482 46.5322 17.3482C46.5322 15.0835 44.823 13.5452 42.1739 13.5452C41.2338 13.5452 41.2338 13.9298 41.2338 14.8699C41.2338 15.8099 41.2338 55.4632 41.2338 55.4632C41.2338 55.4632 41.6184 58.1124 39.6956 58.1124H29.9105C28.5858 58.1124 28.0304 57.7279 28.0304 55.6341C28.0304 53.5403 28.0304 17.5191 28.0304 17.5191C28.0304 15.639 27.4321 13.8871 24.9966 13.5452C23.6719 13.3743 23.6719 13.3743 23.6719 15.0835C23.6719 16.7927 23.6719 55.6768 23.6719 55.6768C23.6719 58.3261 22.7319 57.9415 20.809 57.9415C18.9289 57.9415 11.8785 57.9415 11.8785 57.9415C10.5539 57.9415 9.99843 57.9415 9.99843 55.2923C9.99843 53.1985 9.99843 17.1773 9.99843 17.1773C9.99843 15.639 9.2293 13.7589 8.11833 13.2034C6.96463 12.6052 6.58006 10.9387 8.0756 10.9387Z" fill="#8D181B"/>
<path d="M61.2321 52.8134C61.2321 52.3434 61.403 51.9588 61.7021 51.617C62.0439 51.2752 62.4285 51.147 62.8985 51.147C63.3685 51.147 63.7531 51.3179 64.0949 51.617C64.4368 51.9588 64.565 52.3434 64.565 52.8134C64.565 53.2835 64.3941 53.668 64.0949 54.0099C63.7958 54.3517 63.3685 54.4799 62.8985 54.4799C62.4285 54.4799 62.0439 54.309 61.7021 54.0099C61.403 53.668 61.2321 53.2835 61.2321 52.8134ZM64.3513 52.8134C64.3513 52.4289 64.2231 52.087 63.924 51.7879C63.6249 51.4888 63.2831 51.3606 62.8985 51.3606C62.514 51.3606 62.1721 51.4888 61.873 51.7879C61.5739 52.087 61.4457 52.4289 61.4457 52.8134C61.4457 53.198 61.5739 53.5398 61.873 53.8389C62.1721 54.138 62.514 54.2662 62.8985 54.2662C63.2831 54.2662 63.6249 54.138 63.924 53.8389C64.2231 53.5398 64.3513 53.2407 64.3513 52.8134ZM62.2148 51.9588H62.9412C63.1122 51.9588 63.2831 52.0016 63.3685 52.087C63.454 52.1725 63.5395 52.3007 63.5395 52.4289C63.5395 52.6852 63.3685 52.8562 63.0694 52.8989C63.1976 52.9843 63.2831 53.0698 63.3258 53.1125C63.3685 53.198 63.454 53.3689 63.5822 53.668H63.3258C63.1549 53.3262 63.0267 53.1125 62.9412 53.0271C62.8558 52.9416 62.6849 52.8989 62.5139 52.8989H62.4285V53.668H62.2148V51.9588ZM62.4285 52.7707H62.7276C62.9412 52.7707 63.0694 52.728 63.1549 52.6852C63.2404 52.6425 63.2831 52.5571 63.2831 52.4289C63.2831 52.3007 63.2404 52.2152 63.1549 52.1725C63.0694 52.1298 62.9412 52.087 62.7276 52.087H62.3858V52.7707H62.4285Z" fill="#8D181B"/>
</svg>
