<svg viewBox="0 0 32 32" class="astro-HZVNNT34" width="48" height="48" astro-icon="unlock" xmlns="http://www.w3.org/2000/svg"><path fill="currentColor" fill-rule="evenodd" d="M13 21a3 3 0 1 1 6 0 3 3 0 0 1-6 0Zm3-1a1 1 0 1 0 0 2 1 1 0 0 0 0-2Z" clip-rule="evenodd"></path><path fill="currentColor" fill-rule="evenodd" d="M16 0a7 7 0 0 0-7 7v3H6a3 3 0 0 0-3 3v16a3 3 0 0 0 3 3h20a3 3 0 0 0 3-3V13a3 3 0 0 0-3-3H11V7a5 5 0 0 1 9.716-1.667 1 1 0 0 0 1.885-.666A7.002 7.002 0 0 0 16 0ZM6 12a1 1 0 0 0-1 1v16a1 1 0 0 0 1 1h20a1 1 0 0 0 1-1V13a1 1 0 0 0-1-1H6Z" clip-rule="evenodd"></path></svg>