<svg viewBox="0 0 32 32" class="astro-HZVNNT34" width="48" height="48" astro-icon="customers" xmlns="http://www.w3.org/2000/svg"><path fill="currentColor" fill-rule="evenodd" d="M12 3a6 6 0 1 0 0 12 6 6 0 0 0 0-12ZM8 9a4 4 0 1 1 8 0 4 4 0 0 1-8 0Z" clip-rule="evenodd"></path><path fill="currentColor" d="M2 26a5 5 0 0 1 5-5h10a5 5 0 0 1 5 5v2a1 1 0 1 0 2 0v-2a7 7 0 0 0-7-7H7a7 7 0 0 0-7 7v2a1 1 0 1 0 2 0v-2ZM20.02 3.901a1 1 0 0 1 1.179-.781 6.002 6.002 0 0 1 0 11.76 1 1 0 0 1-.398-1.96 4.002 4.002 0 0 0 0-7.84 1 1 0 0 1-.781-1.179Zm7.313 15.498a1 1 0 1 0-.666 1.885A5.003 5.003 0 0 1 30 26v2a1 1 0 1 0 2 0v-2c0-3.05-1.95-5.641-4.667-6.601Z"></path></svg>