<svg xmlns="http://www.w3.org/2000/svg" fill="none" viewBox="0 0 263 50">
  <path fill="#71494F" d="M29.909 0C22.05.014 15.688 6.385 15.684 14.246V36.62h5.262V14.246c.004-4.948 4.022-8.955 8.966-8.948a8.953 8.953 0 0 1 8.948 8.966 8.959 8.959 0 0 1-8.43 8.933v5.273c7.858-.375 13.921-7.053 13.542-14.907C43.611 6.031 37.448.086 29.908 0Z"/>
  <path fill="#71494F" d="M14.193 49.809c7.85-.015 14.207-6.381 14.217-14.232V13.198h-5.262v22.38c-.01 4.947-4.032 8.947-8.98 8.94-4.944-.014-8.948-4.036-8.933-8.98a8.953 8.953 0 0 1 8.44-8.923v-5.273c-7.861.315-13.978 6.939-13.663 14.8.303 7.622 6.556 13.649 14.185 13.674l-.004-.007Z"/>
  <path fill="#231F20" d="M96.097 34.344a9.284 9.284 0 0 1-9.412-9.155v-.319a9.183 9.183 0 0 1 8.962-9.394c.125-.008.25-.008.375-.004 5.13-.071 9.341 4.029 9.413 9.155v.311c.125 5.07-3.879 9.284-8.948 9.413a6.903 6.903 0 0 1-.386 0v-.007h-.004Zm0-21.26c-7.264 0-12.204 5.52-12.204 11.854 0 6.339 4.868 11.794 12.13 11.794 7.26 0 12.204-5.52 12.204-11.854 0-6.335-4.869-11.794-12.13-11.794Zm-25.32 12.838H64.86v-10.06h6.038c3.853 0 6.406 1.723 6.406 5.001.007 3.032-2.588 5.059-6.528 5.059Zm.325-12.438h-8.934v22.858h2.692v-8.068h5.798c5.08 0 9.377-2.55 9.377-7.508 0-4.543-3.521-7.281-8.933-7.281ZM172.918 25.957l-8.702-12.473h-2.72v22.858h2.627V17.853l8.691 12.219h.139l8.694-12.248v18.518h2.696V13.481h-2.731l-8.694 12.476Zm-20.867-2.32h-13.777V13.481h-2.692v22.861h2.692V26.05h13.777v10.292h2.696V13.481h-2.696v10.156Zm-29.732.032c-5.248-1.083-6.478-2.298-6.478-4.475 0-2.092 1.981-3.729 5.08-3.729 2.513 0 4.951.88 6.885 2.485l1.566-1.988a12.796 12.796 0 0 0-8.39-2.806c-4.533 0-7.843 2.61-7.843 6.274 0 3.785 2.527 5.48 8.032 6.624 5.016 1.008 6.21 2.22 6.21 4.379 0 2.295-2.113 3.918-5.32 3.918-3.306 0-5.694-1.08-8.182-3.232l-1.67 1.892a14.278 14.278 0 0 0 9.756 3.657c4.737 0 8.147-2.546 8.147-6.503-.018-3.525-2.474-5.387-7.793-6.496ZM220.717 25.135v-9.273h7.368c3.854 0 6.106 1.723 6.106 4.54 0 2.97-2.56 4.733-6.138 4.733h-7.336Zm16.202-4.833c0-4.111-3.375-6.825-8.609-6.825h-10.281v22.858h2.688V27.46h6.825l6.917 8.883h3.296l-7.318-9.366c3.754-.63 6.482-2.867 6.482-6.674Zm-41.226 7.679 5.459-11.658 5.423 11.658h-10.882Zm4.229-14.668-10.903 23.03h2.763l2.828-6.042h13.02l2.792 6.041h2.899l-10.9-23.03h-2.499ZM252.326 23.473l10.235-9.988h-3.478l-13.71 13.648V13.485h-2.695v22.857h2.695v-6.141l5.08-4.934 9.173 11.075h3.375l-10.675-12.87Z"/>
</svg>
