<svg viewBox="0 0 32 32" class="astro-HZVNNT34" width="48" height="48" astro-icon="integration" xmlns="http://www.w3.org/2000/svg"><path fill="currentColor" fill-rule="evenodd" d="M9.236 3a3 3 0 0 0-2.683 1.658l-5 10a3 3 0 0 0 0 2.684l5 10A3 3 0 0 0 9.236 29h13.528a3 3 0 0 0 2.683-1.658l5-10a3 3 0 0 0 0-2.684l-5-10A3 3 0 0 0 22.764 3H9.236ZM16 14.197 9.868 5h12.263L16 14.197ZM14.13 17H3.618l4.506 9.012L14.13 17ZM8.124 5.988 14.13 15H3.618l4.506-9.012ZM17.868 17l6.008 9.012L28.382 17H17.868Zm10.514-2H17.868l6.008-9.012L28.382 15Zm-6.25 12L16 17.803 9.868 27h12.263Z" clip-rule="evenodd"></path></svg>