<svg xmlns="http://www.w3.org/2000/svg" fill="none" viewBox="0 0 121 34">
  <g fill="#231F20">
    <path d="M100.35 7.089h3.985l1.31-6.22h7.605l-1.314 6.22h5.025l-1.069 5.062h-5.022l-1.664 7.889c-.372 1.773.006 2.023 2.051 2.023.93 0 1.694-.035 2.708-.07l-1.008 4.775c-1.588.216-3.629.361-5.853.361-4.95 0-6.737-1.227-5.844-5.462l2.009-9.516h-3.984l1.065-5.062ZM90.025 7.089h7.603l-4.13 19.609h-7.604l4.131-19.609ZM91.475.213h7.603l-.977 4.631h-7.603l.977-4.63ZM69.863 7.088l-4.112 19.599 7.418.012L77.282 7.1l-7.419-.012ZM86.032 6.217c-3.394 0-8.798 3.374-10.223 9.381l-.366 1.354h.128c1.08-2.607 3.786-4.003 7.43-4.003.983 0 2.1.136 2.998.34l1.478-7.003a16.55 16.55 0 0 0-1.445-.069ZM59.152 7.089h7.601l-4.13 19.609H55.02l4.132-19.609ZM60.598.213h7.604l-.974 4.631h-7.605l.975-4.63ZM40.357 21.92c3.482 0 5.748-1.737 6.432-4.991.687-3.26-.848-4.993-4.325-4.993-3.552 0-5.829 1.951-6.468 4.993-.64 3.038.811 4.99 4.361 4.99ZM30.464 7.089h7.388l-.547 2.604h.07c2.035-1.99 4.961-3.111 8.046-3.111 6.886 0 10.56 3.832 9.127 10.635-1.198 5.68-6.328 10.271-13.463 10.271-3.371 0-5.715-1.12-6.704-2.566h-.07l-1.871 8.865h-7.602l5.626-26.698ZM9.143 20.583c-.044.723.12 1.302.725 1.667.598.398 1.592.61 3.242.61 1.685 0 3.548-.324 3.846-1.735.22-1.048-.473-1.34-2.291-1.556l-6.606-.832c-4.33-.543-6.255-2.134-5.552-5.463 1.117-5.317 5.989-6.98 13.27-6.98 5.165 0 11.493.938 10.75 6.51h-8.534c.103-.833-.322-1.374-1.014-1.665-.685-.322-1.664-.434-2.635-.434-2.187 0-3.584.507-3.867 1.846-.13.615.259 1.157 2.15 1.375l6.411.723c5.113.58 7.352 2.207 6.546 6.04-.977 4.63-5.809 6.8-13.878 6.8-5.382 0-12.458-.973-11.386-6.906h8.823ZM119.221 8.633c.09 0 .162-.021.215-.064a.214.214 0 0 0 .079-.176.234.234 0 0 0-.067-.173c-.045-.045-.118-.068-.218-.068h-.191v.481h.182Zm-.58-.786h.66c.175 0 .324.04.449.12.124.08.187.214.187.401a.476.476 0 0 1-.294.442l.349.633h-.421l-.262-.521h-.27v.521h-.398V7.847Zm.612 2.069c.164 0 .318-.03.461-.092.143-.061.267-.147.37-.257.103-.11.184-.24.242-.392.059-.153.088-.323.088-.51a1.43 1.43 0 0 0-.088-.513 1.213 1.213 0 0 0-.242-.4 1.066 1.066 0 0 0-.37-.262 1.157 1.157 0 0 0-.461-.092c-.17 0-.324.03-.465.092a1.069 1.069 0 0 0-.366.261 1.213 1.213 0 0 0-.242.401 1.43 1.43 0 0 0-.088.513c0 .187.029.357.088.51.058.151.139.283.242.392.103.11.225.196.366.257.141.062.295.092.465.092Zm0 .345a1.495 1.495 0 0 1-1.415-.95 1.685 1.685 0 0 1-.119-.646c0-.235.039-.452.119-.65a1.5 1.5 0 0 1 1.415-.954c.212 0 .411.04.596.116a1.48 1.48 0 0 1 .819.839c.08.197.119.414.119.649 0 .235-.039.45-.119.646a1.508 1.508 0 0 1-.819.834 1.526 1.526 0 0 1-.596.116Z"/>
  </g>
</svg>
