<svg xmlns="http://www.w3.org/2000/svg" fill="none" viewBox="0 0 255 55">
  <path fill="#009CDE" d="M165.723 40.411c-2.185 2.752-4.334 4.24-7.573 4.24-4.152 0-7.213-2.383-7.213-6.807 0-7.922 8.668-8.479 14.277-8.479h2.185c.183-.743.183-1.3.183-2.045 0-2.383-2.514-3.123-4.699-3.123-2.694 0-5.244.743-7.574 1.858l.912-4.982c2.514-.932 5.245-1.489 7.939-1.489 4.699 0 9.031 1.86 9.031 7.366 0 3.124-2.334 12.532-2.877 16.958h-5.062l.474-3.497h-.003Zm-5.969-.372c4.518 0 5.972-3.124 6.846-6.99h-2.185c-2.877 0-7.759.558-7.759 4.613.036 1.636 1.494 2.383 3.098 2.383v-.006ZM8.615 20.295h4.54l1.093-4.983 6.519-2.23-1.64 7.176h5.389l-.913 4.614h-5.388L16.03 35.21a8.35 8.35 0 0 0-.365 2.38c0 1.49.912 2.384 2.334 2.384 1.092 0 2.185-.186 2.876-.56l-1.092 4.8c-1.093.186-2.185.558-3.242.558-4.152 0-7.028-1.674-7.028-6.282 0-1.859.365-3.683.727-5.541l1.82-8.107H7.704l.912-4.547Zm18.43 0h6.152l-5.064 23.8H21.98l5.061-23.802.002.002ZM29.19 9.992h6.152l-1.272 5.914h-6.119l1.24-5.914Zm22.212 15.656c-1.273-.743-2.694-1.3-4.519-1.3-4.88 0-7.573 4.614-7.573 9.038 0 3.124 1.092 6.282 5.244 6.282 1.457 0 3.424-.372 4.88-1.3l-.729 4.983c-1.82.932-3.786 1.116-5.791 1.116-5.972 0-9.943-4.051-9.943-10.338 0-8.292 5.426-14.58 13.73-14.58 2.333 0 4.518.373 6.152.932l-1.451 5.167Zm8.672 3.314 8.486-8.665H76.5L65.32 31.194l7.028 12.905h-6.846L59.53 31.382h-.182l-2.514 12.716h-5.972l7.247-34.66h5.935l-3.969 19.524Zm38.093-8.665h4.334l1.093-4.982 6.519-2.232-1.458 6.991h5.427l-.912 4.614h-5.427l-2.185 10.338c-.182.743-.365 1.488-.365 2.383 0 1.488.913 2.383 2.334 2.383 1.092 0 2.185-.187 2.877-.56l-1.093 4.8c-1.093.186-2.185.558-3.242.558-4.151 0-7.028-1.674-7.028-6.282 0-1.859.365-3.683.728-5.541l1.82-8.107h-4.334l.912-4.363Z"/>
  <path fill="#009CDE" d="M96.2 28.81c0-6.097-3.786-9.037-9.578-9.037-7.573 0-13.183 7.177-13.183 14.58 0 6.99 4.52 10.337 11.18 10.337 2.514 0 5.062-.559 7.394-1.3l.727-4.982c-2.333 1.115-4.699 1.674-7.212 1.674-3.787 0-6.153-1.488-6.52-5.169v-.931c0-1.675.365-3.31.913-4.799 1.092-2.937 2.876-5.168 6.336-5.168 2.514 0 3.787 1.488 3.787 4.05 0 .56 0 1.116-.182 1.675h-8.304c-.547 1.859-.547 3.124-.727 4.24h14.277c.912-1.675 1.093-3.347 1.093-5.17ZM116.777 22.899l.548-2.567h5.609l-.548 3.124c1.64-2.383 4.334-3.683 7.213-3.683 2.695 0 5.609 1.675 5.972 4.614h.204c1.64-3.124 4.879-4.614 8.121-4.614 3.424 0 6.519 2.938 6.519 6.47 0 2.232-.547 4.615-1.093 6.472l-2.514 11.416h-6.152l2.514-11.603c.365-1.488.728-3.682.728-5.169 0-1.858-1.273-2.937-2.877-2.937-4.152 0-5.244 4.982-5.972 8.293l-2.333 11.23h-6.153l2.514-11.603c.365-1.488.728-3.683.728-5.169 0-1.859-1.273-2.938-2.877-2.938-4.151 0-5.244 4.983-5.972 8.293l-2.333 11.23h-6.152l4.306-20.86Zm74.219 2.192c-.728-.372-2.333-.931-3.967-.931-1.82 0-4.152.559-4.152 2.383 0 2.937 7.939 4.05 7.939 9.965 0 6.282-5.244 8.106-10.489 8.106-2.514 0-4.879-.373-7.028-1.488l1.273-4.983c1.82.932 3.424 1.859 5.791 1.859 2.003 0 4.152-.743 4.152-2.567 0-3.867-7.938-4.24-7.938-10.154 0-5.541 5.244-7.55 10.123-7.55 2.185 0 4.519.373 5.609.744l-1.313 4.616Zm3.791-4.796h4.334l1.093-4.983 6.519-2.23-1.457 6.99h5.426l-.912 4.614h-5.431l-2.185 10.338c-.182.559-.182 1.488-.182 2.383 0 1.488.912 2.383 2.333 2.383 1.093 0 2.185-.187 2.877-.56l-1.093 4.8c-1.092.185-2.185.558-3.241.558-4.152 0-7.029-1.675-7.029-6.282 0-1.859.365-3.683.728-5.542l1.82-8.106h-4.336l.736-4.363Zm41.008 3.163.547-3.124h5.792l-.913 4.426h.183c1.092-2.567 4.152-4.983 6.846-4.983.727 0 1.64 0 2.333.187l-1.273 6.098c-.727-.187-1.639-.373-2.333-.373-4.334 0-6.337 3.867-7.213 7.734l-2.185 10.71h-5.972l4.188-20.675ZM231.642 28.81c0-6.097-3.787-9.037-9.578-9.037-7.574 0-13.183 7.177-13.183 14.58 0 6.99 4.519 10.337 11.18 10.337 2.514 0 5.062-.559 7.393-1.3l.728-4.982c-2.334 1.115-4.699 1.674-7.213 1.674-3.787 0-6.152-1.488-6.519-5.169v-.931c0-1.675.365-3.31.912-4.799 1.092-2.937 2.877-5.168 6.337-5.168 2.514 0 3.786 1.488 3.786 4.05 0 .56 0 1.116-.182 1.675H217c-.548 1.859-.548 3.124-.728 4.24h14.277c.913-1.675 1.093-3.347 1.093-5.17Z"/>
</svg>
