<svg width="34" height="34" viewBox="0 0 34 34" fill="none" xmlns="http://www.w3.org/2000/svg" class="astro-RHRNHLHI">
            <path fill-rule="evenodd" clip-rule="evenodd" d="M17 34C26.3888 34 34 26.3888 34 17C34 7.61116 26.3888 0 17 0C7.61116 0 0 7.61116 0 17C0 26.3888 7.61116 34 17 34ZM24.1683 14.5615C24.1683 19.9668 20.4531 26.2 13.6606 26.2V26.1968C11.6539 26.1998 9.68886 25.563 8 24.3626C8.29175 24.4013 8.58529 24.421 8.87912 24.4216C10.5424 24.4235 12.1578 23.8055 13.4655 22.6671C12.6948 22.6511 11.948 22.3687 11.3293 21.8593C10.7107 21.35 10.2513 20.6393 10.0153 19.8265C10.5687 19.9445 11.1391 19.9205 11.6828 19.7563C10.847 19.5693 10.0954 19.0679 9.5554 18.337C9.01539 17.6062 8.72023 16.6909 8.72 15.7465V15.6947C9.23356 16.0118 9.80845 16.1874 10.3962 16.2067C9.61426 15.6284 9.06075 14.7417 8.84832 13.7272C8.6359 12.7128 8.78055 11.6468 9.2528 10.7463C10.18 12.0099 11.3368 13.0433 12.6481 13.7796C13.9593 14.5159 15.3957 14.9385 16.8639 15.02C16.6802 14.1431 16.7624 13.2236 17.0981 12.4037C17.4337 11.5838 18.0039 10.9092 18.7205 10.4845C19.4371 10.0597 20.2601 9.90834 21.0621 10.0538C21.8642 10.1993 22.6006 10.6336 23.1574 11.2894C23.9845 11.1088 24.7776 10.773 25.5025 10.2965C25.2268 11.2437 24.6498 12.0478 23.8789 12.559C24.611 12.4631 25.326 12.2462 26 11.9154C25.5042 12.7367 24.8803 13.4537 24.1575 14.0327C24.1683 14.2082 24.1683 14.3844 24.1683 14.5615Z" fill="#420828" class="astro-RHRNHLHI"></path>
            </svg>