<svg xmlns="http://www.w3.org/2000/svg" fill="none" viewBox="0 0 244 53">
  <g clip-path="url(#a)">
    <path fill="#7F187F" d="M85.7 12.873H75.011a1.75 1.75 0 0 0-1.757 1.746v2.378a1.174 1.174 0 0 0 1.178 1.133h1.756c.056 0 .093.019.13.075.038.055.057.13.038.185l-4.185 12.465c-.038.074-.112.13-.206.111-.075 0-.15-.055-.168-.111l-6.26-16.886v-.018a1.16 1.16 0 0 0-1.008-.725h-3.774c-.449.037-.841.316-1.028.725v.018l-6.26 16.886a.18.18 0 0 1-.167.13c-.094 0-.169-.037-.206-.112L48.91 18.39c-.019-.055 0-.13.037-.185.037-.038.075-.075.13-.075h1.757c.635 0 1.159-.501 1.177-1.133V14.62a1.75 1.75 0 0 0-1.756-1.746H39.568c-.374 0-.729.186-.953.483-.206.279-.28.65-.168.985.15.427.336.947.504 1.486.168.539.355 1.04.523 1.504.15.465.58.78 1.084.8h1.794c.093 0 .187.055.205.148l8.315 24.279c.15.464.579.799 1.083.799h2.579c.486 0 .915-.298 1.083-.743 2.28-6.576 6.652-19.097 6.82-19.524a.219.219 0 0 1 .206-.167c.093 0 .187.056.205.149.168.445 4.54 12.966 6.82 19.523.168.446.598.743 1.084.762h2.578c.505 0 .934-.335 1.084-.8L82.71 18.28c.074-.149.168-.149.205-.149h1.794c.486 0 .915-.316 1.084-.78.168-.464.336-1.003.523-1.505.186-.501.373-1.058.523-1.486a1.092 1.092 0 0 0-.168-.984c-.243-.316-.58-.502-.972-.502Zm125.109 25.58h-1.943a.545.545 0 0 1-.542-.558V13.97a.765.765 0 0 0-.804-.761h-5.68a.79.79 0 0 0-.616.297l-2.354 2.916c-.281.335-.206.836.13 1.115a.709.709 0 0 0 .449.167h.729c.298.019.541.26.56.557v19.598a.8.8 0 0 1-.149.446c-.617.799-1.981 2.49-2.654 3.325a.772.772 0 0 0 .075 1.114c.15.13.318.186.505.205h9.902a.664.664 0 0 0 .561-.223l2.317-2.88c.542-.63.168-1.392-.486-1.392ZM204.492 9.975c2.353 0 4.26-1.896 4.26-4.235 0-2.34-1.907-4.235-4.26-4.235-2.352 0-4.26 1.896-4.26 4.235 0 2.34 1.908 4.235 4.26 4.235ZM241.973 15.678c0-.409-.224-.799-.766-.799h-.99v2.583h.373v-.948h.337l.654.948h.429l-.691-.985c.486-.037.654-.427.654-.799Zm-1.383.465v-.948h.654a.434.434 0 0 1 .411.446v.037a.42.42 0 0 1-.373.465h-.692Z"/>
    <path fill="#7F187F" d="M241.02 13.932a2.242 2.242 0 0 0-2.242 2.23 2.242 2.242 0 0 0 4.484 0 2.23 2.23 0 0 0-2.242-2.23Zm0 4.124c-1.046 0-1.906-.836-1.906-1.876v-.019a1.87 1.87 0 0 1 1.831-1.895h.075c1.046 0 1.906.855 1.906 1.895s-.841 1.895-1.906 1.895ZM113.612 38.564c-1.644.074-2.466-.687-2.466-2.564V22.57c0-5.87-4.951-9.604-10.538-9.604-8.67 0-11.79 4.087-12.145 8.656a.793.793 0 0 0 .748.837h4.316c.41-.02.747-.335.766-.725.224-2.378 1.83-4.124 4.521-4.124 2.971 0 4.765 1.505 4.765 4.886v2.916h-1.551c-5.325 0-8.987.687-11.454 2.23-2.466 1.541-3.699 4.383-3.699 7.708 0 2.452.84 4.459 2.541 6.056 1.7 1.598 3.68 2.303 6.278 2.303 1.55 0 3.083-.353 4.484-1.021a14.82 14.82 0 0 0 3.774-2.415c.225-.204.58-.204.785.018a.331.331 0 0 1 .094.13c1.214 2.118 2.541 2.806 5.063 2.806 2.279 0 3.382-2.118 4.372-3.4.374-.502-.037-1.3-.654-1.263Zm-9.996-2.155h-.037c0 .186-.299.446-.411.557a10.862 10.862 0 0 1-2.28 1.468 5.707 5.707 0 0 1-2.354.446c-1.177 0-2.354-.446-3.12-1.282a4.535 4.535 0 0 1-1.177-3.14c0-1.746.654-2.916 1.98-3.789 1.327-.873 3.494-1.282 6.091-1.282h1.289l.019 7.022Zm91.217 2.155c-1.645.074-2.467-.687-2.467-2.564V22.57c0-5.87-4.951-9.604-10.538-9.604-8.669 0-11.789 4.087-12.144 8.656a.792.792 0 0 0 .747.837h4.316c.411-.02.747-.335.766-.725.224-2.378 1.831-4.124 4.522-4.124 2.971 0 4.764 1.505 4.764 4.886v2.916h-1.532c-5.325 0-9.006.687-11.453 2.23-2.467 1.541-3.719 4.383-3.719 7.708 0 2.452.841 4.459 2.542 6.056 1.7 1.598 3.68 2.303 6.277 2.303 1.551 0 3.083-.353 4.485-1.021a14.837 14.837 0 0 0 3.774-2.415.56.56 0 0 1 .785.018.34.34 0 0 1 .093.13c1.215 2.118 2.541 2.806 5.063 2.806 2.28 0 3.382-2.118 4.373-3.4.373-.502-.038-1.3-.654-1.263Zm-9.978-2.155h-.037c0 .186-.299.446-.411.557a10.862 10.862 0 0 1-2.28 1.468 5.705 5.705 0 0 1-2.354.446c-1.177 0-2.354-.446-3.12-1.282a4.532 4.532 0 0 1-1.177-3.14c0-1.746.654-2.916 1.98-3.789 1.327-.873 3.494-1.282 6.091-1.282h1.29v7.022h.018Zm50.242-23.313c-.392-.204-1.382-.297-2.242-.297-1.383 0-2.485.186-3.438.594l-.075.037c-.355.168-.71.353-1.027.595a13.736 13.736 0 0 0-3.214 2.75s-.411.315-.486-.205v-2.694a.787.787 0 0 0-.784-.78h-5.68a.702.702 0 0 0-.58.279s-1.793 2.21-2.373 2.972c-.355.446-.13 1.282.617 1.282h.71c.299 0 .561.26.561.557v19.69a.78.78 0 0 1-.131.446c-.561.688-1.981 2.471-2.672 3.344a.795.795 0 0 0 .149 1.115.722.722 0 0 0 .468.167h12.275c.43 0 .785-.353.785-.78v-2.954a.787.787 0 0 0-.785-.78h-1.943a.55.55 0 0 1-.561-.557V26.415c.225-5.443 3.494-7.114 5.064-7.597l.224-.075.056-.018c.43-.112.86-.168 1.308-.168 1.868 0 2.56.28 3.587.54.43.11.785-.354.785-.781v-4.458c-.037-.353-.318-.632-.598-.762Zm-66.759.093h-8.893a.573.573 0 0 1-.561-.557V8.266c0-2.117 1.102-4.235 3.382-4.235 2.578 0 2.971 2.155 3.083 3.79a.807.807 0 0 0 .766.761h3.681a.751.751 0 0 0 .728-.78C170.45 2.34 166.956 0 161.35 0c-3.419 0-5.661 1.059-7.342 3.102-1.682 2.044-2.542 4.328-2.542 8.415v1.096a.54.54 0 0 1-.541.539l-15.191.037a.764.764 0 0 0-.803.762v2.972c0 .446.374.799.803.799h1.626a.56.56 0 0 1 .523.761s-4.185 9.678-5.867 13.542a.573.573 0 0 1-.729.297.657.657 0 0 1-.298-.297c-1.719-3.9-5.942-13.542-5.942-13.542a.56.56 0 0 1 .299-.724.675.675 0 0 1 .205-.037h1.14a.795.795 0 0 0 .804-.8V13.97a.765.765 0 0 0-.804-.761H112.94a.783.783 0 0 0-.785.817c0 .13.037.241.093.353.411.724 1.327 2.452 1.588 2.953.131.242.393.39.654.41h2.653c.225 0 .43.13.524.334 0 0 9.772 21.808 10.127 22.57a4.139 4.139 0 0 1-.019 3.027c-.449 1.784-3.457 4.979-5.12 4.403-1.139-.39-1.289-2.452-2.653-2.712a1.29 1.29 0 0 0-.747.093c-.243.092-2.467 2.935-2.952 3.436a.86.86 0 0 0 0 1.059c1.214 1.245 3.251 2.916 6.203 3.028 3.625.148 7.193-.334 10.5-6.576 0 0 10.52-25.56 11.772-28.31a.596.596 0 0 1 .523-.297h5.549c.299 0 .56.241.56.539v19.634a.755.755 0 0 1-.149.446c-.654.836-1.981 2.49-2.653 3.325a.768.768 0 0 0 .112 1.096c.149.112.318.186.504.168h12.407a.795.795 0 0 0 .803-.8v-2.916a.795.795 0 0 0-.803-.798h-2.13a.545.545 0 0 1-.542-.558V18.26a.54.54 0 0 1 .542-.538h6.558a.788.788 0 0 0 .616-.298c.561-.724 1.682-2.192 2.28-2.953a.795.795 0 0 0-.15-1.115.834.834 0 0 0-.467-.167Z"/>
    <path fill="#82D170" d="M34.429 22.644 32.28 14.62a.773.773 0 0 0-.56-.557l-8.072-2.136a.747.747 0 0 0-.747.204l-5.419 5.387 11.342 11.276 5.418-5.387a.817.817 0 0 0 .187-.762Z"/>
    <path fill="#F8CF1C" d="m.516 34.923 2.149 8.025c.074.279.28.483.56.557l8.09 2.136c.262.075.561 0 .748-.204l5.418-5.387L6.16 28.774.74 34.161a.824.824 0 0 0-.224.762Z"/>
    <path fill="#C6D636" d="m11.297 11.926-8.071 2.136a.773.773 0 0 0-.56.557l-2.15 8.025c-.074.26 0 .558.206.743l5.419 5.387 11.322-11.257-5.418-5.387a.737.737 0 0 0-.748-.204Z"/>
    <path fill="#D57DEA" d="m34.149 34.087-5.344-5.313-11.323 11.257 5.344 5.313c.243.242.598.335.934.26l7.866-2.08a.989.989 0 0 0 .692-.688l2.092-7.82a1 1 0 0 0-.261-.929Z"/>
    <path fill="#7F187F" d="M17.483 17.517 6.16 28.774l11.323 11.257 11.341-11.257-11.341-11.257Z"/>
    <path fill="#82D170" d="M34.429 22.644 32.28 14.62a.773.773 0 0 0-.56-.557l-8.072-2.136a.747.747 0 0 0-.747.204l-5.419 5.387 11.342 11.276 5.418-5.387a.817.817 0 0 0 .187-.762Z"/>
    <path fill="#F8CF1C" d="m.516 34.923 2.149 8.025c.074.279.28.483.56.557l8.09 2.136c.262.075.561 0 .748-.204l5.418-5.387L6.16 28.774.74 34.161a.824.824 0 0 0-.224.762Z"/>
    <path fill="#C6D636" d="m11.297 11.926-8.071 2.136a.773.773 0 0 0-.56.557l-2.15 8.025c-.074.26 0 .558.206.743l5.419 5.387 11.322-11.257-5.418-5.387a.737.737 0 0 0-.748-.204Z"/>
    <path fill="#D57DEA" d="m34.149 34.087-5.344-5.313-11.323 11.257 5.344 5.313c.243.242.598.335.934.26l7.866-2.08a.989.989 0 0 0 .692-.688l2.092-7.82a1 1 0 0 0-.261-.929Z"/>
    <path fill="#7F187F" d="M17.483 17.517 6.16 28.774l11.323 11.257 11.341-11.257-11.341-11.257Z"/>
  </g>
  <defs>
    <clipPath id="a">
      <path fill="#fff" d="M0 0h242.774v53H0z" transform="translate(.488)"/>
    </clipPath>
  </defs>
</svg>